<svg fill="none" height="21" preserveAspectRatio="xMidYMid meet" viewBox="0 0 20 21" width="20" xmlns="http://www.w3.org/2000/svg">
    <path d="M6.28711 0.929779L8.5141 0.333496C8.5141 0.333496 9.66133 3.78973 9.76195 4.99089C10.0012 7.83979 7.33005 10.4163 4.74723 10.1194C3.5276 9.97832 0 8.8471 0 8.8471L0.596318 6.62024L6.14232 8.10604L2.08221 4.04616L3.71288 2.41558L7.77299 6.47546L6.28711 0.929779Z" fill="#E14343"></path>
    <path d="M20 8.8471C20 8.8471 16.4736 9.97954 15.2528 10.1194C12.67 10.4163 9.99879 7.83979 10.2381 4.99089C10.3387 3.78973 11.4859 0.333496 11.4859 0.333496L13.7129 0.929779L12.227 6.47546L16.2871 2.41558L17.9178 4.04616L13.8577 8.10604L19.4037 6.62024L20 8.8471Z" fill="#E14343"></path>
    <path d="M4.74723 10.5476C3.52637 10.6874 0 11.8199 0 11.8199L0.596318 14.0468L6.14232 12.561L2.08221 16.6208L3.71288 18.2514L7.77299 14.1915L6.28711 19.7372L8.5141 20.3335C8.5141 20.3335 9.66133 16.8773 9.76195 15.6761C10.0012 12.8272 7.33005 10.2507 4.74723 10.5476Z" fill="#E14343"></path>
    <path d="M11.4859 20.3335C11.4859 20.3335 10.3387 16.8773 10.2381 15.6761C9.99879 12.8272 12.67 10.2507 15.2528 10.5476C16.4724 10.6887 20 11.8199 20 11.8199L19.4037 14.0468L13.8577 12.561L17.9178 16.6208L16.2871 18.2514L12.227 14.1915L13.7129 19.7372L11.4859 20.3335Z" fill="#E14343"></path>
</svg>