<svg width="1727" height="400" viewBox="0 0 1727 400" fill="none" xmlns="http://www.w3.org/2000/svg">
<path d="M102.248 193.497C99.5487 193.497 96.849 193.356 94.2195 193.041C72.4823 190.552 13.2308 172.04 0.644287 168.078L11.4428 127.759L130.927 159.769L43.4526 72.259L72.903 42.8086L160.378 130.283L128.368 10.7987L168.722 0.000244141C172.754 12.3414 191.406 70.3307 193.194 91.6822C195.298 116.68 185.902 142.519 167.46 162.609C149.404 182.242 125.633 193.497 102.283 193.497H102.248Z" fill="#E35454"/>
<path d="M298.97 193.497C275.62 193.497 251.849 182.242 233.793 162.609C215.317 142.519 205.956 116.68 208.059 91.6822C209.847 70.3657 228.499 12.3414 232.531 0.000244141L272.885 10.7987L240.876 130.318L328.35 42.8436L357.801 72.294L270.326 159.769L389.846 127.759L400.644 168.078C388.093 172.04 328.806 190.587 307.069 193.076C304.439 193.391 301.705 193.532 299.04 193.532L298.97 193.497Z" fill="#E35454"/>
<path d="M128.368 389.167L160.378 269.647L72.903 357.122L43.4526 327.672L130.927 240.197L11.4428 272.207L0.644287 231.888C13.1958 227.926 72.4823 209.379 94.2195 206.89C96.849 206.574 99.5837 206.434 102.248 206.434C125.598 206.434 149.369 217.688 167.425 237.322C185.902 257.411 195.263 283.25 193.159 308.248C191.371 329.565 172.719 387.589 168.687 399.93L128.333 389.132L128.368 389.167Z" fill="#E35454"/>
<path d="M232.497 399.965C228.465 387.624 209.813 329.634 208.025 308.283C205.921 283.285 215.317 257.446 233.759 237.356C251.815 217.723 275.585 206.468 298.935 206.468C301.635 206.468 304.335 206.609 306.964 206.924C328.701 209.448 387.953 227.925 400.539 231.922L389.741 272.241L270.221 240.231L357.696 327.706L328.246 357.156L240.771 269.682L272.781 389.201L232.426 400L232.497 399.965Z" fill="#E35454"/>
<path d="M628.373 356.164C602.588 356.164 577.26 349.884 557.018 338.518L556.912 338.448C533.619 326.661 514.429 307.085 501.414 281.792C489.241 258.112 482.751 230.328 482.646 201.456C482.54 172.233 488.96 143.993 501.204 119.787C514.289 93.967 533.619 73.9005 557.158 61.7975H557.263C578.663 49.5541 603.991 43.1343 630.513 43.1343C662.647 43.1343 693.624 52.5711 717.69 69.7609C743.194 87.933 759.191 113.402 764.067 143.467H720.742C715.304 122.979 703.833 106.035 687.555 94.4581C672.084 83.4426 653.07 77.6191 632.583 77.6191C603.465 77.6191 575.26 89.5116 555.229 110.245C533.583 132.662 522.743 163.568 523.971 199.632C522.743 235.906 533.513 266.882 555.123 289.264C575.295 310.137 603.921 322.1 633.705 322.1C657.911 322.1 680.539 314.172 697.413 299.718C716.251 283.616 727.056 260.392 728.6 232.573L728.74 229.837H623.251V197.071H765.295V352.901H729.477V306.699L724.531 305.577C716.392 322.276 703.096 335.221 685.064 344.026C668.786 351.989 649.176 356.164 628.303 356.164H628.373Z" fill="white"/>
<path fill-rule="evenodd" clip-rule="evenodd" d="M875.986 356.374C861.778 356.374 848.377 353.673 837.151 348.551H837.081L837.011 348.481C819.049 341.535 806.21 324.941 802.736 304.138C799.228 283.265 806.139 262.672 820.698 250.359L820.803 250.254L820.909 250.148C837.467 232.502 878.828 227.626 909.068 224.083H909.208C915.031 223.381 920.539 222.75 925.486 222.048C936.852 221.241 944.886 215.207 947.517 205.525C950.779 193.492 944.815 178.618 933.66 170.9C924.082 163.778 910.366 159.674 896.017 159.674C870.794 159.674 843.29 172.584 840.765 200.859H804.561C806.385 179.635 816.734 161.709 834.59 148.904C851.359 136.871 873.46 130.241 896.789 130.241C912.576 130.241 927.731 133.328 940.851 139.222L942.921 140.204C970.004 152.938 985.404 177.565 985.264 207.77V352.831H952.463V320.907L947.517 319.785C941.904 331.361 931.8 340.868 918.364 347.288C905.945 353.217 891.317 356.339 875.986 356.339V356.374ZM945.763 244.114C939.799 245.623 930.327 246.886 919.381 248.359C893.211 251.867 860.62 256.217 849.956 267.303L849.851 267.408L849.745 267.549C835.888 286.036 837.607 299.157 841.501 306.875C847.711 319.329 864.655 327.362 884.686 327.362C903.841 327.362 921.241 320.135 931.274 307.962C943.973 295.158 950.428 272.741 948.99 246.5L948.815 243.343L945.763 244.114Z" fill="white"/>
<path d="M1066.09 43.2744H1028.97V352.831H1066.09V43.2744Z" fill="white"/>
<path d="M1156.75 43.2744H1114.03V88.5993H1156.75V43.2744Z" fill="white"/>
<path d="M1153.32 133.959H1116.2V352.831H1153.32V133.959Z" fill="white"/>
<path d="M1242.2 43.2744H1205.08V352.831H1242.2V43.2744Z" fill="white"/>
<path fill-rule="evenodd" clip-rule="evenodd" d="M1385.39 356.831C1354.8 356.831 1325.58 344.973 1305.23 324.275C1285.02 303.753 1274.67 275.723 1275.2 243.238V240.607H1275.13C1274.81 209.244 1284.81 182.231 1304.18 162.305C1323.82 142.098 1352.13 130.487 1381.78 130.487C1408.12 130.487 1432.47 139.608 1450.36 156.131C1470.57 174.829 1481.37 201.947 1481.55 234.573C1481.55 238.747 1481.34 243.694 1480.88 249.237H1312.04L1312.21 251.973C1313.44 273.127 1320.35 291.159 1332.17 304.209C1344.7 317.961 1362.1 325.258 1382.51 325.258H1383.53C1398.05 325.258 1411.28 321.784 1421.84 315.259C1433 308.348 1440.43 298.245 1443.52 285.967H1479.69C1474.74 307.822 1462.99 325.924 1445.62 338.448C1429.14 350.341 1407.74 356.866 1385.43 356.866L1385.39 356.831ZM1380.79 159.464C1365.04 159.464 1349.78 164.726 1337.82 174.233C1324.49 184.862 1316.32 199.947 1314.18 217.804L1313.82 220.715H1441.59L1441.45 217.979C1439.38 177.531 1409.49 159.429 1380.79 159.429V159.464Z" fill="white"/>
<path fill-rule="evenodd" clip-rule="evenodd" d="M1616.35 356.689C1596.88 356.689 1578.22 351.673 1560.92 341.745C1544.29 332.483 1530.65 318.065 1521.45 300.033C1512.79 283.054 1508.26 263.338 1508.26 243.096C1508.26 222.925 1512.86 203.349 1521.49 186.475C1530.68 168.549 1544.29 154.236 1560.89 145.079C1577.93 135.292 1597.09 130.1 1616.28 130.1C1646.27 130.1 1675.43 142.448 1696.26 163.988C1716.61 185.002 1727.28 213.102 1726.29 243.096V243.167V243.272C1727.35 273.442 1716.68 301.682 1696.26 322.801C1675.46 344.341 1646.31 356.689 1616.35 356.689ZM1619.09 161.883C1606.6 161.883 1593.58 165.532 1580.43 172.688L1580.29 172.758L1580.15 172.864C1564.64 184.02 1553.83 199.911 1548.96 218.82C1544.57 235.835 1545.2 254.743 1550.78 272.038C1555.66 287.193 1563.9 300.103 1574.6 309.47C1586.21 319.608 1600.32 324.976 1615.33 324.976C1627.82 324.976 1640.91 321.327 1654.17 314.136L1654.31 314.066L1654.45 313.96C1670.06 302.91 1680.93 287.158 1685.88 268.39C1690.34 251.551 1689.77 232.782 1684.27 215.558C1679.39 200.262 1671.08 187.142 1660.24 177.635C1648.48 167.321 1634.24 161.883 1619.09 161.883Z" fill="white"/>
</svg>
