<svg fill="none" height="62" viewBox="0 0 262 62" width="120" xmlns="http://www.w3.org/2000/svg">
<path d="M110.147 36.1367H94.4738V30.4844H116.379V54.4454H110.272V47.1856C105.961 56.0373 92.6628 56.674 84.808 52.2586C69.7508 44.6439 69.8239 18.1412 84.8393 10.4116C96.3475 3.86161 114.286 8.95026 116.248 23.2872H109.056C105.246 7.72377 79.7715 10.9335 80.4709 31.2516C79.7141 53.245 109.093 54.9204 110.147 36.1315V36.1367Z" fill="#01091A"/>
<path clip-rule="evenodd" d="M122.021 31.8309C122.542 21.6901 135.225 18.2455 143.184 22.0659C147.354 24.0283 149.729 27.8435 149.703 32.4728V54.4402H144.05V49.2993C141.295 54.9725 132.516 56.2199 127.125 53.7617C121.045 51.4078 119.771 42.5719 124.588 38.5062C127.156 35.7766 133.325 35.0511 137.965 34.5031C138.837 34.3987 139.661 34.3048 140.392 34.2004C144.421 33.9238 144.171 29.1796 141.42 27.2955C137.286 24.2057 128.409 25.5366 128.184 31.8257H122.021V31.8309ZM129.473 41.5959C123.424 49.6647 136.582 52.4986 141.003 47.1177C143.022 45.0875 143.716 41.5646 143.539 38.2556C142.631 38.4853 141.196 38.6732 139.572 38.8924C135.778 39.3986 130.961 40.0458 129.473 41.5959Z" fill="#01091A" fill-rule="evenodd"/>
<path d="M162.083 7.61417H155.788V54.4402H162.083V7.61417Z" fill="#01091A"/>
<path d="M168.565 7.61417H175.694V15.1297H168.565V7.61417Z" fill="#01091A"/>
<path d="M175.182 21.1056H168.888V54.4454H175.182V21.1056Z" fill="#01091A"/>
<path d="M181.993 7.61417H188.293V54.4402H181.993V7.61417Z" fill="#01091A"/>
<path clip-rule="evenodd" d="M193.016 37.739C192.667 58.3076 220.97 60.818 224.3 43.7149H218.131C217.311 47.7127 213.465 49.576 209.462 49.5603C203.282 49.6073 199.639 45.0927 199.295 39.0281H224.357C224.446 38.0417 224.488 37.1857 224.488 36.4603C224.357 14.2946 192.4 15.923 193.011 37.7442H193.016V37.739ZM199.582 34.0125C200.892 23.1932 217.165 22.5931 217.75 34.0125H199.582Z" fill="#01091A" fill-rule="evenodd"/>
<path clip-rule="evenodd" d="M236.382 22.8018C247.666 16.3197 262.003 24.4406 261.564 37.739C262.023 51.0791 247.702 59.2314 236.382 52.7335C225.698 46.7942 225.662 28.7203 236.382 22.8018ZM250.259 47.9528C236.82 55.2439 229.164 35.1346 239.659 27.5878C253.026 20.3123 260.907 40.4112 250.259 47.9528Z" fill="#01091A" fill-rule="evenodd"/>
<path d="M19.6262 2.54117L26.3589 0.74057C26.3589 0.74057 29.8296 11.1893 30.1323 14.8218C30.8578 23.4386 22.7838 31.2255 14.9708 30.3278C11.2861 29.8998 0.618164 26.4813 0.618164 26.4813L2.41876 19.7486L19.1878 24.2423L6.91243 11.9669L11.8445 7.03484L24.1199 19.3102L19.6262 2.54117Z" fill="#E35454"/>
<path d="M61.0924 26.4813C61.0924 26.4813 50.4297 29.905 46.7345 30.3278C38.9267 31.2255 30.8527 23.4333 31.573 14.8218C31.8809 11.1892 35.3464 0.74054 35.3464 0.74054L42.0791 2.54114L37.5906 19.3102L49.866 7.03481L54.7929 11.9669L42.5175 24.2423L59.2865 19.7486L61.0924 26.4813Z" fill="#E35454"/>
<path d="M14.9708 31.6273C11.2808 32.05 0.618164 35.4738 0.618164 35.4738L2.41876 42.2065L19.1878 37.7128L6.91243 49.9882L11.8445 54.9203L24.1199 42.6449L19.6262 59.4139L26.3589 61.2145C26.3589 61.2145 29.8296 50.7658 30.1323 47.1333C30.8578 38.5165 22.7838 30.7296 14.9708 31.6273Z" fill="#E35454"/>
<path d="M35.3464 61.2145C35.3464 61.2145 31.8809 50.7658 31.573 47.1333C30.8527 38.5165 38.9267 30.7296 46.7345 31.6273C50.4245 32.0553 61.0924 35.4738 61.0924 35.4738L59.2865 42.2065L42.5175 37.7128L54.7929 49.9882L49.866 54.9203L37.5906 42.6449L42.0791 59.4139L35.3464 61.2145Z" fill="#E35454"/>
</svg>
