<svg width="1726" height="400" viewBox="0 0 1726 400" fill="none" xmlns="http://www.w3.org/2000/svg">
<path d="M125.727 11.9101L170.26 0.000244141C170.26 0.000244141 193.217 69.1122 195.219 93.1391C200.017 150.134 146.613 201.64 94.934 195.702C70.5618 192.872 0 170.26 0 170.26L11.9099 125.727L122.827 155.45L41.6329 74.2559L74.2556 41.6331L155.45 122.828L125.727 11.9101Z" fill="#E35454"/>
<path d="M400 170.26C400 170.26 329.473 192.906 305.032 195.702C253.387 201.64 199.983 150.099 204.747 93.1389C206.783 69.1119 229.706 0 229.706 0L274.238 11.9099L244.55 122.827L325.744 41.6329L358.333 74.2556L277.138 155.45L388.056 125.727L400 170.26Z" fill="#E35454"/>
<path d="M94.934 204.298C70.5273 207.094 0 229.74 0 229.74L11.9099 274.273L122.827 244.55L41.6329 325.744L74.2556 358.367L155.45 277.173L125.727 388.09L170.26 400C170.26 400 193.217 330.888 195.219 306.861C200.017 249.866 146.613 198.36 94.934 204.298Z" fill="#E35454"/>
<path d="M229.706 400C229.706 400 206.783 330.888 204.747 306.861C199.983 249.866 253.387 198.36 305.032 204.298C329.438 207.129 400 229.74 400 229.74L388.056 274.273L277.138 244.55L358.333 325.744L325.744 358.367L244.55 277.173L274.238 388.09L229.706 400Z" fill="#E35454"/>
<path d="M724.08 231.913H620.417V194.526H765.297V353.014H724.909V304.994C696.395 363.543 608.438 367.754 556.486 338.549C456.896 288.183 457.379 112.883 556.693 61.7563C632.809 18.4319 751.454 52.0903 764.434 146.921H716.865C691.666 43.9778 523.174 65.2085 527.8 199.601C522.794 345.074 717.107 356.155 724.08 231.878V231.913Z" fill="#01091A"/>
<path fill-rule="evenodd" clip-rule="evenodd" d="M802.613 203.433C806.065 136.357 889.948 113.573 942.591 138.843C970.173 151.823 985.879 177.058 985.707 207.679V352.979H948.322V318.976C930.095 356.501 872.033 364.751 836.373 348.492C796.158 332.922 787.735 274.478 819.597 247.585C836.581 229.531 877.383 224.732 908.071 221.108C913.836 220.417 919.29 219.796 924.123 219.105C950.773 217.276 949.116 185.896 930.924 173.433C903.584 152.997 844.865 161.8 843.381 203.398H802.613V203.433ZM851.907 268.022C811.899 321.392 898.924 340.137 928.162 304.546C941.521 291.117 946.112 267.815 944.939 245.928C938.932 247.447 929.439 248.69 918.703 250.14C893.607 253.489 861.746 257.769 851.907 268.022Z" fill="#01091A"/>
<path d="M1067.59 43.2529H1025.96V352.979H1067.59V43.2529Z" fill="#01091A"/>
<path d="M1110.46 43.2529H1157.62V92.9638H1110.46V43.2529Z" fill="#01091A"/>
<path d="M1154.23 132.491H1112.6V353.014H1154.23V132.491Z" fill="#01091A"/>
<path d="M1199.28 43.2529H1240.95V352.979H1199.28V43.2529Z" fill="#01091A"/>
<path fill-rule="evenodd" clip-rule="evenodd" d="M1272.19 242.511C1269.87 378.56 1457.08 395.164 1479.1 282.038H1438.3C1432.88 308.481 1407.44 320.805 1380.96 320.702C1340.09 321.012 1315.99 291.151 1313.72 251.037H1479.48C1480.07 244.513 1480.34 238.851 1480.34 234.053C1479.48 87.4402 1268.11 98.2109 1272.15 242.545H1272.19V242.511ZM1315.61 217.862C1324.28 146.299 1431.91 142.329 1435.78 217.862H1315.61Z" fill="#01091A"/>
<path fill-rule="evenodd" clip-rule="evenodd" d="M1559.01 143.71C1633.65 100.835 1728.47 154.55 1725.57 242.511C1728.61 330.747 1633.89 384.67 1559.01 341.691C1488.35 302.405 1488.11 182.858 1559.01 143.71ZM1650.8 310.069C1561.91 358.296 1511.27 225.284 1580.69 175.366C1669.1 127.243 1721.22 260.186 1650.8 310.069Z" fill="#01091A"/>
</svg>
